<?xml version="1.0" standalone="no"?>
<!DOCTYPE svg PUBLIC "-//W3C//DTD SVG 20010904//EN"
 "http://www.w3.org/TR/2001/REC-SVG-20010904/DTD/svg10.dtd">
<svg version="1.0" xmlns="http://www.w3.org/2000/svg"
 width="16.000000pt" height="16.000000pt" viewBox="0 0 16.000000 16.000000"
 preserveAspectRatio="xMidYMid meet">
<metadata>
Created by potrace 1.11, written by Peter Selinger 2001-2013
</metadata>
<g transform="translate(0.000000,16.000000) scale(0.008290,-0.008290)"
fill="#000000" stroke="none">
<path d="M200 1828 c-1 -38 -1 -1260 0 -1346 0 -31 1 -32 23 -20 12 7 25 11
30 10 4 -1 7 2 7 7 0 15 33 22 42 9 6 -10 8 -8 6 4 -2 11 8 25 25 35 l29 18 0
529 c0 291 3 524 7 519 3 -6 31 -23 61 -38 30 -15 58 -32 62 -38 3 -6 14 -12
24 -13 9 -2 21 -9 25 -16 5 -7 9 -8 9 -3 0 6 6 3 13 -5 7 -8 18 -16 26 -18 8
-2 26 -11 40 -20 14 -10 38 -24 54 -32 15 -7 27 -17 27 -22 0 -5 4 -7 9 -3 5
3 16 -2 24 -10 9 -8 20 -15 26 -15 6 0 20 -9 31 -20 11 -11 20 -18 20 -15 0 3
14 -2 30 -10 17 -9 28 -20 25 -25 -3 -6 0 -7 8 -4 8 3 23 -3 32 -13 10 -10 21
-17 24 -15 3 1 14 -5 24 -13 9 -8 17 -12 17 -10 0 3 17 -6 37 -20 21 -14 43
-25 49 -25 6 0 24 -12 39 -27 16 -16 25 -22 20 -14 -5 9 1 8 18 -4 14 -9 28
-23 31 -30 3 -8 12 -12 19 -9 8 3 21 -2 30 -10 8 -8 18 -12 22 -8 5 4 6 0 2
-9 -4 -12 -1 -16 12 -12 10 2 24 -2 32 -9 8 -8 31 -22 52 -31 20 -10 35 -22
32 -27 -3 -6 1 -7 9 -4 22 8 20 -9 -1 -22 -10 -6 -133 -77 -273 -158 -140 -81
-295 -171 -345 -200 -49 -29 -197 -115 -327 -190 l-236 -137 -4 -67 c-5 -98
-1 -114 24 -106 15 4 18 3 13 -6 -6 -9 -4 -11 4 -6 7 5 10 11 6 14 -9 9 85 63
97 56 6 -4 8 -3 5 3 -4 6 0 14 9 17 22 9 26 8 18 -6 -4 -7 -3 -8 5 -4 6 4 9
11 7 15 -7 10 102 73 114 66 6 -3 10 0 10 8 0 17 27 30 42 20 6 -3 8 -2 5 4
-6 10 160 110 175 106 5 -2 8 1 8 5 0 13 59 43 72 36 6 -4 8 -3 5 3 -4 5 6 16
21 24 15 7 43 23 62 35 19 12 39 21 44 22 5 0 12 4 15 10 11 17 104 63 117 58
9 -3 11 0 7 11 -5 13 -2 15 11 10 10 -4 15 -3 11 3 -3 6 -1 10 5 10 6 0 18 7
27 16 9 8 22 13 30 10 8 -3 11 -2 8 3 -5 9 32 27 48 23 5 -1 6 2 2 8 -6 10 7
14 33 11 7 -1 11 4 10 11 -2 7 3 12 10 11 6 -2 12 2 12 7 0 6 4 10 9 10 6 0
30 14 55 31 26 17 51 27 58 23 7 -4 10 -3 5 1 -7 9 68 57 91 58 6 0 12 4 12 8
0 13 111 71 126 65 7 -3 16 0 20 6 4 7 3 8 -4 4 -7 -4 -12 -3 -12 1 0 5 16 17
35 27 19 11 35 22 35 25 0 6 -1504 881 -1515 881 -3 0 -5 -19 -5 -42z"/>
<path d="M519 1297 c-4 -289 3 -663 13 -672 8 -7 9 -6 4 3 -8 13 38 37 63 33
7 -1 10 2 7 8 -4 5 12 20 34 32 43 24 43 24 42 137 -1 38 3 50 11 45 9 -5 9
-3 0 8 -10 13 -6 15 28 16 35 1 38 -1 27 -16 -12 -14 -11 -15 5 -2 10 8 34 16
52 18 29 2 33 -1 30 -17 -2 -11 0 -22 4 -25 5 -2 8 5 7 17 -1 18 5 22 38 24
35 3 37 2 25 -14 -13 -16 -12 -16 5 -2 27 21 66 23 86 5 14 -12 20 -13 26 -4
4 7 3 10 -4 5 -6 -3 -14 -1 -18 5 -10 16 18 30 33 17 10 -8 12 -7 7 6 -4 11
-1 16 10 16 9 0 16 4 16 8 0 5 11 15 25 22 14 7 25 16 25 19 0 4 -26 22 -57
41 l-58 35 -160 5 -160 5 -2 60 c-1 33 -2 74 -2 90 -1 28 -9 36 -81 78 l-80
46 -1 -52z"/>
<path d="M1469 813 c-13 -16 -12 -17 4 -4 16 13 21 21 13 21 -2 0 -10 -8 -17
-17z"/>
<path d="M626 668 c3 -5 10 -6 15 -3 13 9 11 12 -6 12 -8 0 -12 -4 -9 -9z"/>
<path d="M550 629 c0 -5 5 -7 10 -4 6 3 10 8 10 11 0 2 -4 4 -10 4 -5 0 -10
-5 -10 -11z"/>
<path d="M759 403 c-13 -16 -12 -17 4 -4 16 13 21 21 13 21 -2 0 -10 -8 -17
-17z"/>
<path d="M330 151 c0 -6 4 -13 10 -16 6 -3 7 1 4 9 -7 18 -14 21 -14 7z"/>
</g>
</svg>
